<svg width="229" height="229" viewBox="0 0 229 229" fill="none" xmlns="http://www.w3.org/2000/svg">
<path d="M33.8 50.6L15.3 93.9L33.8 137.2L52.3 93.9L33.8 50.6ZM97.7 185.5L116.2 142.2L97.7 98.9L79.2 142.2L97.7 185.5ZM179.8 93.9L161.3 50.6L142.8 93.9L161.3 137.2L179.8 93.9Z" fill="#667EEA"/>
<path d="M133 98.9L151.5 142.2L133 185.5M196.7 50.6L215.2 93.9L196.7 137.2V50.6ZM184.9 50.6L203.4 93.9L184.9 137.2V50.6ZM142.8 93.9L161.3 50.6L179.8 93.9L161.3 137.2L142.8 93.9ZM173.1 50.6L191.6 93.9L173.1 137.2V50.6ZM69.1 50.6L87.6 93.9L69.1 137.2V50.6ZM57.3 50.6L75.8 93.9L57.3 137.2V50.6ZM15.3 93.9L33.8 50.6L52.3 93.9L33.8 137.2L15.3 93.9ZM79.2 142.2L97.7 98.9L116.2 142.2L97.7 185.5L79.2 142.2ZM109.5 98.9L128 142.2L109.5 185.5V98.9ZM121.3 98.9L139.8 142.2L121.3 185.5V98.9ZM45.6 50.6L64 93.9L45.5 137.2L45.6 50.6Z" stroke="#667EEA" stroke-width="5" stroke-linecap="round" stroke-linejoin="round"/>
</svg>
