<?xml version="1.0" standalone="no"?>
<!DOCTYPE svg PUBLIC "-//W3C//DTD SVG 20010904//EN"
 "http://www.w3.org/TR/2001/REC-SVG-20010904/DTD/svg10.dtd">
<svg version="1.0" xmlns="http://www.w3.org/2000/svg"
 width="700.000000pt" height="700.000000pt" viewBox="0 0 700.000000 700.000000"
 preserveAspectRatio="xMidYMid meet">
<metadata>
Created by potrace 1.11, written by Peter Selinger 2001-2013
</metadata>
<g transform="translate(0.000000,700.000000) scale(0.100000,-0.100000)"
fill="#000000" stroke="none">
<path d="M987 5508 c-17 -15 -113 -229 -287 -638 -144 -338 -270 -633 -280
-655 -30 -66 -33 -92 -17 -128 8 -17 79 -183 157 -367 78 -184 150 -353 160
-375 10 -22 68 -159 130 -305 113 -268 138 -310 183 -310 38 0 62 26 92 97 15
37 38 91 50 118 12 28 46 106 75 175 29 69 56 128 59 132 4 4 6 -97 6 -225 -1
-128 3 -242 8 -253 13 -31 49 -47 86 -39 36 8 42 17 126 215 31 74 67 158 79
185 12 28 28 65 35 83 8 17 16 32 20 32 3 0 6 -102 6 -227 -1 -126 3 -238 8
-250 13 -30 62 -49 95 -37 33 12 37 19 177 352 38 89 71 162 74 162 4 0 6 -99
6 -219 0 -121 3 -233 7 -249 13 -48 78 -67 116 -34 11 9 73 141 137 292 64
151 125 293 135 316 10 22 42 96 70 165 29 68 62 147 75 174 81 182 175 414
176 435 2 21 -22 82 -116 295 -22 50 -124 288 -295 690 -89 210 -170 388 -182
398 -28 24 -62 21 -95 -7 l-28 -24 0 -246 c0 -135 -1 -246 -1 -246 -1 0 -48
109 -105 243 -56 133 -109 252 -117 265 -30 46 -112 36 -129 -16 -5 -15 -9
-129 -8 -254 0 -125 -3 -224 -6 -220 -4 4 -52 115 -108 247 -56 132 -111 248
-122 258 -29 23 -63 21 -95 -6 l-27 -23 0 -247 c0 -136 -1 -246 -3 -244 -1 1
-41 94 -89 207 -123 287 -133 308 -155 320 -30 16 -57 12 -83 -12z m687 -1120
c1 -120 -1 -218 -4 -218 -3 0 -49 102 -103 228 l-97 227 0 225 1 225 101 -235
101 -235 1 -217z m360 -10 c1 -125 -1 -224 -5 -220 -3 4 -16 32 -28 62 -13 30
-29 69 -36 85 -7 17 -40 94 -74 173 l-60 143 -1 182 c0 100 -1 202 0 227 0 41
9 26 102 -190 l101 -235 1 -227z m552 -235 c3 -12 -1 -36 -10 -55 -8 -18 -87
-204 -176 -413 -89 -209 -168 -394 -175 -411 -8 -17 -19 -42 -24 -55 -7 -16
-10 48 -10 203 l-1 227 100 233 c55 128 100 244 100 258 0 14 -45 130 -100
258 l-100 234 0 226 0 227 195 -455 c108 -250 198 -465 201 -477z m-727 20
c11 -33 10 -44 -7 -83 l-20 -45 -3 98 c-4 102 4 110 30 30z m370 -31 c1 -8 -5
-28 -13 -45 -8 -18 -17 -39 -19 -47 -3 -8 -5 30 -5 85 l-1 100 19 -40 c10 -22
19 -46 19 -53z m-195 -249 c-1 -241 2 -223 -54 -348 -10 -22 -39 -89 -64 -150
-26 -60 -53 -123 -60 -140 -8 -16 -16 -37 -19 -45 -7 -18 -8 49 -7 272 l0 167
91 213 c50 117 95 223 100 236 5 12 10 22 11 22 2 0 3 -102 2 -227z m-360 -10
l-1 -218 -88 -200 c-48 -110 -93 -216 -100 -235 l-14 -35 -1 40 c0 22 0 124 0
227 1 178 2 190 26 245 52 118 62 141 115 266 29 70 56 127 59 127 3 0 5 -98
4 -217z"/>
<path d="M4897 5523 c-22 -6 -26 -13 -147 -298 -56 -132 -111 -258 -121 -279
-10 -22 -19 -43 -19 -47 0 -6 -29 -74 -70 -164 -59 -126 -250 -592 -250 -607
0 -16 40 -116 106 -263 7 -16 79 -185 159 -375 81 -190 155 -363 165 -385 10
-22 37 -85 60 -140 23 -55 48 -113 56 -129 8 -16 14 -35 14 -41 0 -22 52 -65
79 -65 41 1 65 27 99 110 5 14 19 45 30 70 11 25 32 74 47 110 15 36 37 88 49
115 12 28 28 65 35 83 8 17 16 32 20 32 4 0 6 -100 6 -222 -1 -123 3 -235 7
-249 5 -14 19 -32 32 -39 26 -13 79 -6 94 13 5 7 56 121 112 255 57 133 106
242 109 242 3 0 6 -106 6 -234 1 -234 1 -235 25 -260 28 -30 69 -34 98 -8 11
9 62 114 112 232 119 280 114 270 120 270 3 0 5 -106 6 -235 1 -232 1 -235 24
-260 28 -29 69 -33 99 -7 11 9 67 127 124 262 57 135 116 271 131 303 14 32
26 59 26 62 0 2 70 167 156 367 85 200 156 374 156 388 0 14 -36 108 -80 210
-44 102 -173 403 -286 670 -117 273 -216 493 -228 503 -28 24 -62 21 -94 -7
l-28 -23 0 -246 0 -247 -22 48 c-11 26 -47 108 -79 182 -31 74 -68 159 -81
188 -13 29 -24 57 -24 63 0 19 -53 59 -80 59 -16 0 -36 -10 -51 -26 l-24 -25
0 -245 c0 -134 -1 -244 -2 -244 0 0 -50 115 -109 255 -117 276 -128 292 -189
281 -57 -11 -62 -38 -61 -303 1 -128 1 -233 0 -233 -1 0 -50 113 -110 252 -59
139 -116 260 -126 270 -17 17 -43 21 -81 11z m581 -698 l95 -220 1 -227 c1
-126 1 -228 1 -228 -2 0 -29 60 -105 235 -10 22 -30 69 -45 105 -15 36 -33 78
-40 93 -10 20 -14 75 -15 185 -2 216 1 310 7 292 4 -8 49 -114 101 -235z m457
-448 c0 -125 -2 -224 -5 -220 -4 5 -28 60 -55 123 -26 63 -56 133 -66 155 -10
22 -31 73 -48 114 l-31 73 0 227 0 226 102 -235 101 -235 2 -228z m285 398
c28 -59 270 -636 270 -645 0 -8 -245 -593 -296 -705 -7 -16 -34 -77 -58 -135
l-45 -105 -1 227 0 227 100 233 c55 128 101 243 102 254 2 18 -36 114 -118
300 -7 16 -29 67 -49 113 l-35 83 0 226 1 227 59 -140 c33 -77 64 -149 70
-160z m-451 -645 c0 -8 -9 -33 -19 -55 l-19 -40 0 95 0 95 19 -40 c10 -22 19
-47 19 -55z m360 0 c0 -8 -9 -33 -19 -55 l-19 -40 0 95 0 95 19 -40 c10 -22
19 -47 19 -55z m-554 -247 c-1 -209 -3 -232 -22 -273 -21 -44 -165 -381 -176
-410 -7 -19 -8 21 -8 251 l1 186 86 204 c48 112 93 219 100 237 8 17 15 32 17
32 1 0 2 -102 2 -227z m360 -5 l-2 -223 -101 -235 -102 -235 0 228 0 227 91
213 c92 213 107 247 113 247 2 0 2 -100 1 -222z"/>
<path d="M2936 4031 c-9 -10 -55 -108 -102 -217 -47 -110 -92 -212 -99 -229
-8 -16 -39 -91 -70 -165 -32 -74 -68 -159 -81 -188 -13 -29 -24 -55 -24 -57 0
-4 -24 -59 -66 -152 -8 -17 -14 -34 -14 -37 0 -3 -11 -29 -24 -58 -66 -142
-115 -270 -110 -286 3 -9 135 -320 292 -691 267 -627 289 -674 318 -688 27
-13 35 -13 60 -2 25 12 44 48 141 274 l112 260 1 -246 c0 -230 1 -247 20 -266
27 -30 55 -36 87 -21 26 13 58 72 126 239 10 24 23 53 28 64 5 11 29 67 53
125 l45 105 1 -237 c0 -154 4 -246 11 -262 22 -47 94 -55 125 -15 6 8 34 70
64 139 29 69 61 143 71 165 9 22 43 101 74 175 31 74 67 159 81 188 13 29 24
55 24 58 0 3 9 24 19 47 11 23 58 134 106 247 48 113 95 221 103 240 9 19 16
37 17 40 1 3 7 18 13 33 7 16 12 34 12 41 0 11 -114 287 -170 411 -10 22 -34
79 -54 128 -20 48 -44 106 -55 130 -32 72 -136 314 -217 507 -43 101 -86 192
-96 202 -25 25 -80 23 -104 -3 -17 -19 -19 -43 -24 -266 l-5 -245 -105 249
c-58 136 -113 256 -122 265 -25 25 -80 23 -104 -3 -17 -19 -19 -43 -24 -266
l-5 -244 -109 256 c-64 150 -117 260 -127 266 -29 15 -75 10 -93 -10z m598
-683 l96 -227 -2 -223 -3 -222 -59 139 c-77 183 -92 216 -118 273 -20 44 -22
62 -23 274 0 126 2 225 5 220 4 -4 50 -109 104 -234z m434 -173 c93 -220 182
-428 196 -462 l26 -62 -185 -433 c-102 -238 -189 -441 -195 -450 -5 -10 -10
-25 -10 -35 0 -9 -3 -13 -7 -9 -5 4 -8 103 -8 219 l-1 212 104 245 c108 254
108 256 77 325 -7 17 -33 77 -58 135 -24 58 -61 146 -83 195 l-38 90 -1 222
c0 123 2 219 6 215 3 -4 83 -187 177 -407z m-155 -482 c15 -38 15 -44 -1 -82
-9 -22 -19 -41 -22 -41 -3 0 -6 40 -5 89 0 96 3 99 28 34z m-280 -734 c-54
-126 -100 -229 -104 -229 -3 0 -5 100 -4 223 l2 222 77 175 c42 96 83 189 91
205 7 17 17 44 22 60 5 19 9 -56 11 -199 l2 -229 -97 -228z"/>
<path d="M4010 4028 c-11 -12 -20 -32 -20 -45 0 -12 73 -193 161 -400 89 -208
213 -499 276 -648 63 -148 117 -272 118 -275 2 -3 -3 -19 -10 -35 -8 -17 -53
-122 -100 -235 -48 -113 -95 -223 -105 -245 -10 -22 -35 -80 -56 -130 -20 -49
-93 -220 -161 -378 -68 -158 -123 -299 -123 -313 0 -22 29 -62 48 -65 35 -6
52 -4 70 10 12 9 57 99 102 206 45 105 88 204 95 220 65 146 405 950 405 958
0 8 -355 849 -419 992 -10 22 -49 113 -87 203 -38 90 -77 172 -87 183 -25 27
-80 25 -107 -3z"/>
</g>
</svg>
